<?xml version="1.0" standalone="no"?>
<!DOCTYPE svg PUBLIC "-//W3C//DTD SVG 20010904//EN"
 "http://www.w3.org/TR/2001/REC-SVG-20010904/DTD/svg10.dtd">
<svg version="1.0" xmlns="http://www.w3.org/2000/svg"
 width="260.000000pt" height="280.000000pt" viewBox="0 0 260.000000 280.000000"
 preserveAspectRatio="xMidYMid meet">

<g transform="translate(0.000000,280.000000) scale(0.100000,-0.100000)"
fill="#000000" stroke="none">
<path d="M1203 2165 c-160 -35 -289 -148 -345 -304 -28 -76 -30 -225 -4 -299
16 -48 16 -55 3 -70 -23 -25 -5 -47 56 -70 84 -32 200 -46 387 -46 187 0 303
14 387 46 61 23 79 45 56 70 -14 15 -14 22 1 65 90 264 -75 550 -351 608 -82
18 -109 18 -190 0z m294 -253 c12 -6 29 -33 39 -59 22 -60 34 -75 34 -41 0 14
7 29 16 32 23 9 62 7 69 -3 7 -12 -19 -38 -46 -46 -21 -7 -21 -7 2 -31 20 -21
24 -37 27 -117 1 -51 -1 -112 -5 -137 l-8 -45 -78 -3 c-72 -3 -77 -1 -77 18 0
12 -7 20 -17 20 -10 0 -27 7 -37 15 -14 11 -47 15 -116 15 -69 0 -102 -4 -116
-15 -10 -8 -27 -15 -36 -15 -11 0 -18 -8 -18 -20 0 -19 -5 -21 -77 -18 l-78 3
-8 45 c-4 25 -6 87 -4 138 4 79 8 96 26 116 l23 24 -21 7 c-27 8 -53 34 -46
46 7 10 46 12 69 3 9 -3 16 -18 17 -33 0 -21 6 -13 29 36 21 45 35 64 52 67
13 3 32 7 43 10 40 10 320 0 342 -12z"/>
<path d="M1114 1901 c-27 -12 -61 -98 -45 -114 13 -13 454 -17 467 -5 4 5 1
26 -6 48 -26 77 -18 75 -217 77 -98 1 -187 -2 -199 -6z"/>
<path d="M999 1704 c-11 -14 -10 -19 11 -36 30 -24 103 -22 108 4 2 13 -10 21
-49 32 -29 9 -54 16 -55 16 -1 0 -8 -7 -15 -16z"/>
<path d="M1527 1704 c-36 -11 -47 -19 -45 -32 7 -37 128 -20 128 18 0 14 -23
34 -33 29 -1 0 -24 -7 -50 -15z"/>
<path d="M1142 1661 c4 -19 88 -41 158 -41 70 0 154 22 158 41 2 12 -24 14
-158 14 -134 0 -160 -2 -158 -14z"/>
<path d="M753 1530 c-65 -37 -87 -68 -78 -110 8 -34 67 -86 86 -74 7 4 9 3 6
-3 -9 -14 86 -49 183 -69 44 -9 80 -22 88 -32 7 -9 68 -106 135 -214 67 -109
124 -198 127 -198 3 0 64 96 137 213 l132 213 83 18 c104 23 195 59 238 95 27
22 34 35 34 64 0 19 -6 43 -14 52 -16 19 -85 60 -117 70 -40 12 -26 -19 20
-44 24 -13 44 -29 44 -35 0 -6 3 -22 5 -36 3 -14 3 -19 1 -12 -3 10 -10 7 -21
-10 -9 -12 -16 -27 -14 -31 1 -5 -2 -6 -7 -2 -6 3 -28 -3 -49 -14 -22 -11 -78
-28 -126 -38 -65 -13 -82 -20 -64 -24 22 -7 22 -7 1 -8 -12 -1 -24 3 -27 7 -3
5 -40 4 -83 -1 -43 -5 -152 -6 -243 -3 -187 6 -318 29 -407 72 -32 15 -65 27
-73 26 -9 -1 -10 1 -3 4 7 3 9 12 6 20 -3 7 -9 12 -14 9 -4 -3 -3 8 2 25 7 19
26 39 50 53 38 21 52 47 27 47 -7 0 -37 -14 -65 -30z m50 -181 c-4 -15 -8 -17
-14 -8 -6 11 4 28 18 29 0 0 -1 -9 -4 -21z m957 -31 c0 -6 -7 -7 -16 -4 -9 3
-18 6 -20 6 -3 0 -3 4 1 10 7 11 35 2 35 -12z m-55 -6 c-3 -3 -11 0 -18 7 -9
10 -8 11 6 5 10 -3 15 -9 12 -12z m-577 -59 c-10 -2 -26 -2 -35 0 -10 3 -2 5
17 5 19 0 27 -2 18 -5z m332 -3 c-14 -4 -79 -8 -145 -7 l-120 1 115 6 c63 3
129 6 145 7 29 1 29 1 5 -7z"/>
<path d="M633 95 c0 -27 2 -38 4 -22 2 15 8 27 13 27 5 0 11 -12 13 -27 4 -26
4 -26 6 5 1 22 -4 32 -13 32 -8 0 -17 8 -19 18 -3 9 -5 -5 -4 -33z"/>
<path d="M1132 95 c0 -27 2 -43 5 -35 3 8 13 24 22 35 15 18 15 19 -1 7 -14
-12 -17 -10 -21 15 -2 16 -4 6 -5 -22z"/>
<path d="M750 120 c-4 -25 1 -54 10 -63 4 -5 5 3 3 17 -4 19 -1 26 11 26 9 0
16 -8 16 -19 0 -11 4 -22 9 -25 5 -4 7 3 4 15 -3 12 -1 24 4 28 7 4 6 11 -3
19 -8 7 -14 8 -14 2 0 -14 -27 -13 -33 3 -4 8 -6 8 -7 -3z"/>
<path d="M979 118 c-2 -25 3 -53 11 -62 5 -5 6 1 3 14 -3 12 -1 25 4 29 7 4 6
11 -3 19 -11 10 -14 10 -15 0z"/>
<path d="M1527 123 c22 -4 22 -6 8 -33 -22 -42 -17 -51 5 -10 25 46 25 50 -7
49 -24 -2 -25 -2 -6 -6z"/>
<path d="M1590 125 c-1 -5 -1 -21 0 -34 1 -13 -4 -28 -12 -32 -9 -6 -3 -9 17
-9 17 0 25 4 18 8 -6 4 -13 23 -16 42 -2 19 -5 31 -7 25z"/>
<path d="M1630 110 c-13 -24 2 -60 25 -60 17 0 28 33 20 60 -3 11 -13 20 -20
20 -8 0 -19 -9 -25 -20z m35 -20 c0 -13 -5 -25 -11 -27 -14 -5 -25 22 -17 42
8 23 28 12 28 -15z"/>
<path d="M1700 106 c-15 -29 -8 -56 15 -56 23 0 31 31 12 45 -12 9 -14 14 -5
23 7 7 8 12 2 12 -6 0 -16 -11 -24 -24z m22 -31 c0 -5 -5 -11 -11 -13 -6 -2
-11 4 -11 13 0 9 5 15 11 13 6 -2 11 -8 11 -13z"/>
<path d="M1767 123 c22 -4 22 -6 8 -33 -22 -42 -17 -51 5 -10 25 46 25 50 -7
49 -24 -2 -25 -2 -6 -6z"/>
<path d="M1822 105 c-22 -28 -23 -30 -5 -34 10 -2 21 -8 24 -13 10 -15 16 14
10 47 l-6 29 -23 -29z m14 -22 c-10 -10 -19 5 -10 18 6 11 8 11 12 0 2 -7 1
-15 -2 -18z"/>
<path d="M1887 123 c22 -4 22 -6 8 -33 -22 -42 -17 -51 5 -10 25 46 25 50 -7
49 -24 -2 -25 -2 -6 -6z"/>
<path d="M1950 125 c-1 -5 -1 -21 0 -34 1 -13 -4 -28 -12 -32 -9 -6 -3 -9 17
-9 17 0 25 4 18 8 -6 4 -13 23 -16 42 -2 19 -5 31 -7 25z"/>
<path d="M2002 105 c-22 -28 -23 -30 -5 -34 10 -2 21 -8 24 -13 10 -15 16 14
10 47 l-6 29 -23 -29z m14 -22 c-10 -10 -19 5 -10 18 6 11 8 11 12 0 2 -7 1
-15 -2 -18z"/>
<path d="M580 93 c0 -10 4 -14 8 -8 4 6 11 13 16 18 5 4 2 7 -7 7 -10 0 -17
-8 -17 -17z"/>
<path d="M691 83 c-1 -27 3 -33 19 -33 16 0 20 6 19 33 -2 30 -2 30 -6 5 -6
-36 -20 -36 -26 0 -4 25 -4 25 -6 -5z"/>
<path d="M837 104 c-13 -13 -7 -24 14 -24 11 0 19 5 17 12 -5 14 -22 21 -31
12z"/>
<path d="M891 78 c2 -28 2 -29 6 -8 3 14 10 28 17 32 7 5 5 8 -6 8 -14 0 -18
-8 -17 -32z"/>
<path d="M930 93 c0 -10 4 -14 8 -8 4 6 11 13 16 18 5 4 2 7 -7 7 -10 0 -17
-8 -17 -17z"/>
<path d="M1024 95 c-8 -21 2 -45 20 -45 17 0 28 24 20 45 -4 8 -13 15 -20 15
-8 0 -17 -7 -20 -15z m31 -15 c0 -7 -6 -15 -12 -17 -8 -3 -13 4 -13 17 0 13 5
20 13 18 6 -3 12 -11 12 -18z"/>
<path d="M1084 95 c-8 -20 2 -45 18 -44 10 0 10 2 1 6 -7 2 -13 13 -13 23 0
10 6 21 13 23 9 4 9 6 -1 6 -7 1 -15 -6 -18 -14z"/>
<path d="M1224 95 c-8 -20 2 -45 18 -44 10 0 10 2 1 6 -7 2 -13 13 -13 23 0
10 6 21 13 23 9 4 9 6 -1 6 -7 1 -15 -6 -18 -14z"/>
<path d="M1274 95 c-8 -21 2 -45 20 -45 7 0 16 7 20 15 8 21 -3 45 -20 45 -8
0 -17 -7 -20 -15z m31 -15 c0 -7 -6 -15 -12 -17 -8 -3 -13 4 -13 17 0 13 5 20
13 18 6 -3 12 -11 12 -18z"/>
<path d="M1331 77 c2 -31 2 -31 6 -4 2 15 8 27 13 27 5 0 11 -12 13 -27 l4
-28 2 28 c0 15 5 27 10 27 5 0 12 -12 14 -27 4 -27 4 -27 6 4 1 29 -1 31 -34
31 -33 0 -35 -2 -34 -31z"/>
<path d="M592 65 c-11 -12 -10 -15 3 -15 8 0 15 7 15 15 0 18 -2 18 -18 0z"/>
<path d="M942 65 c-11 -12 -10 -15 3 -15 8 0 15 7 15 15 0 18 -2 18 -18 0z"/>
<path d="M1150 71 c0 -5 5 -13 10 -16 6 -3 10 -2 10 4 0 5 -4 13 -10 16 -5 3
-10 2 -10 -4z"/>
<path d="M838 58 c5 -5 16 -8 23 -6 8 3 3 7 -10 11 -17 4 -21 3 -13 -5z"/>
</g>
</svg>
